M48
; DRILL file {KiCad (6.0.4)} date Mon Jul 24 12:38:13 2023
; FORMAT={-:-/ absolute / inch / decimal}
; #@! TF.CreationDate,2023-07-24T12:38:13-04:00
; #@! TF.GenerationSoftware,Kicad,Pcbnew,(6.0.4)
; #@! TF.FileFunction,Plated,1,2,PTH
FMAT,2
INCH
; #@! TA.AperFunction,Plated,PTH,ViaDrill
T1C0.0157
; #@! TA.AperFunction,Plated,PTH,ComponentDrill
T2C0.0315
; #@! TA.AperFunction,Plated,PTH,ComponentDrill
T3C0.0394
; #@! TA.AperFunction,Plated,PTH,ComponentDrill
T4C0.0433
; #@! TA.AperFunction,Plated,PTH,ComponentDrill
T5C0.1260
%
G90
G05
T1
X5.3768Y-2.6789
X5.4018Y-3.1039
X5.4518Y-3.1539
X5.5018Y-2.409
X5.5018Y-2.7039
X5.5268Y-3.2039
X5.5768Y-3.2539
X5.6268Y-2.8039
X5.6586Y-3.1374
X5.6713Y-3.2124
X5.7018Y-3.4039
X5.7468Y-2.9839
X5.7518Y-2.7289
X5.7768Y-3.3289
X5.8018Y-2.4539
X5.9518Y-3.1455
X5.9768Y-2.9539
X6.0268Y-4.3539
X6.0518Y-4.6039
X6.0668Y-1.7839
X6.0668Y-2.6839
X6.0768Y-2.7289
X6.0768Y-3.2124
X6.0768Y-4.7539
X6.0768Y-4.9039
X6.1018Y-3.7039
X6.1268Y-2.8639
X6.1268Y-4.1789
X6.1768Y-3.0539
X6.2018Y-4.1789
X6.2268Y-3.9239
X6.2518Y-3.1039
X6.5018Y-2.8789
X6.5068Y-1.8839
X6.5068Y-2.7639
X6.5143Y-2.8189
X6.5268Y-4.0039
X6.5518Y-2.7039
X6.5518Y-3.4789
X6.5668Y-2.3439
X6.5868Y-1.7839
X6.5943Y-2.9664
X6.6568Y-2.8714
X6.7518Y-3.3789
X6.9768Y-3.3789
X7.1268Y-3.4789
T2
X6.3768Y-1.6789
X6.3768Y-1.7789
X6.3768Y-1.8789
X6.3768Y-1.9789
X6.3768Y-2.0789
X6.3768Y-2.1789
X6.3768Y-2.2789
X6.3768Y-2.3789
X6.3768Y-2.5789
X6.3768Y-2.6789
X6.3768Y-2.7789
X6.3768Y-2.8789
X6.3768Y-2.9789
X6.3768Y-3.0789
X6.3768Y-3.1789
X6.3768Y-3.2789
X6.3768Y-3.4789
X6.3768Y-3.5789
X6.3768Y-3.6789
X6.3768Y-3.7789
X6.3768Y-3.8789
X6.3768Y-3.9789
X6.3768Y-4.0789
X6.3768Y-4.1789
X6.3768Y-4.4039
X6.3768Y-4.5039
X6.3768Y-4.6039
X6.3768Y-4.7039
X6.3768Y-4.8039
X6.3768Y-4.9039
X6.3768Y-5.0039
X6.3768Y-5.1039
X6.8768Y-1.6789
X6.8768Y-1.7789
X6.8768Y-1.8789
X6.8768Y-1.9789
X6.8768Y-2.0789
X6.8768Y-2.1789
X6.8768Y-2.2789
X6.8768Y-2.3789
X6.8768Y-2.5789
X6.8768Y-2.6789
X6.8768Y-2.7789
X6.8768Y-2.8789
X6.8768Y-2.9789
X6.8768Y-3.0789
X6.8768Y-3.1789
X6.8768Y-3.2789
X6.8768Y-3.4789
X6.8768Y-3.5789
X6.8768Y-3.6789
X6.8768Y-3.7789
X6.8768Y-3.8789
X6.8768Y-3.9789
X6.8768Y-4.0789
X6.8768Y-4.1789
X6.8768Y-4.4039
X6.8768Y-4.5039
X6.8768Y-4.6039
X6.8768Y-4.7039
X6.8768Y-4.8039
X6.8768Y-4.9039
X6.8768Y-5.0039
X6.8768Y-5.1039
T3
X5.1024Y-3.1024
X5.1024Y-3.2024
X5.1024Y-3.3024
X5.1024Y-3.4024
X5.1024Y-3.5024
X5.1024Y-3.6024
X5.1024Y-3.7024
X5.1024Y-3.8024
X5.1024Y-3.9024
X5.1024Y-4.0024
X5.315Y-3.937
X5.315Y-4.037
X5.315Y-4.137
X5.315Y-4.237
X5.315Y-4.337
X5.315Y-4.437
X5.315Y-4.537
X5.315Y-4.637
X5.315Y-4.737
X5.315Y-4.837
X5.315Y-4.937
X5.315Y-5.037
X5.315Y-5.137
X5.315Y-5.237
X5.315Y-5.337
X5.915Y-3.937
X5.915Y-4.037
X5.915Y-4.137
X5.915Y-4.237
X5.915Y-4.337
X5.915Y-4.437
X5.915Y-4.537
X5.915Y-4.637
X5.915Y-4.737
X5.915Y-4.837
X5.915Y-4.937
X5.915Y-5.037
X5.915Y-5.137
X5.915Y-5.237
X5.915Y-5.337
X7.3768Y-4.4789
X7.3768Y-4.5789
X7.3768Y-4.6789
T4
X7.3768Y-2.0539
X7.3768Y-2.1539
X7.3768Y-2.2539
X7.3768Y-2.3539
X7.3768Y-2.6039
X7.3768Y-2.7039
X7.3768Y-2.8039
X7.3768Y-2.9039
X7.3768Y-3.0039
X7.3768Y-3.1039
X7.3768Y-3.2039
X7.3768Y-3.3039
X7.3768Y-3.6039
X7.3768Y-3.7039
X7.3768Y-3.8039
X7.3768Y-3.9039
X7.3768Y-4.0039
X7.3768Y-4.1039
X7.3768Y-4.2039
X7.3768Y-4.3039
X7.3768Y-4.8539
X7.3768Y-4.9539
T5
X5.0236Y-1.7638
X5.0236Y-5.3071
X7.3858Y-1.7638
X7.3858Y-5.3071
T0
M30
