%TF.GenerationSoftware,KiCad,Pcbnew,(6.0.4)*%
%TF.CreationDate,2023-07-24T12:38:11-04:00*%
%TF.ProjectId,BREAD_Slice,42524541-445f-4536-9c69-63652e6b6963,rev?*%
%TF.SameCoordinates,Original*%
%TF.FileFunction,Legend,Bot*%
%TF.FilePolarity,Positive*%
%FSLAX46Y46*%
G04 Gerber Fmt 4.6, Leading zero omitted, Abs format (unit mm)*
G04 Created by KiCad (PCBNEW (6.0.4)) date 2023-07-24 12:38:11*
%MOMM*%
%LPD*%
G01*
G04 APERTURE LIST*
%ADD10C,0.150000*%
%ADD11C,0.120000*%
G04 APERTURE END LIST*
D10*
%TO.C,C2*%
X126767142Y-50813333D02*
X126814761Y-50765714D01*
X126862380Y-50622857D01*
X126862380Y-50527619D01*
X126814761Y-50384761D01*
X126719523Y-50289523D01*
X126624285Y-50241904D01*
X126433809Y-50194285D01*
X126290952Y-50194285D01*
X126100476Y-50241904D01*
X126005238Y-50289523D01*
X125910000Y-50384761D01*
X125862380Y-50527619D01*
X125862380Y-50622857D01*
X125910000Y-50765714D01*
X125957619Y-50813333D01*
X125957619Y-51194285D02*
X125910000Y-51241904D01*
X125862380Y-51337142D01*
X125862380Y-51575238D01*
X125910000Y-51670476D01*
X125957619Y-51718095D01*
X126052857Y-51765714D01*
X126148095Y-51765714D01*
X126290952Y-51718095D01*
X126862380Y-51146666D01*
X126862380Y-51765714D01*
%TO.C,C1*%
X126767142Y-62243333D02*
X126814761Y-62195714D01*
X126862380Y-62052857D01*
X126862380Y-61957619D01*
X126814761Y-61814761D01*
X126719523Y-61719523D01*
X126624285Y-61671904D01*
X126433809Y-61624285D01*
X126290952Y-61624285D01*
X126100476Y-61671904D01*
X126005238Y-61719523D01*
X125910000Y-61814761D01*
X125862380Y-61957619D01*
X125862380Y-62052857D01*
X125910000Y-62195714D01*
X125957619Y-62243333D01*
X126862380Y-63195714D02*
X126862380Y-62624285D01*
X126862380Y-62910000D02*
X125862380Y-62910000D01*
X126005238Y-62814761D01*
X126100476Y-62719523D01*
X126148095Y-62624285D01*
%TO.C,D1*%
X140483095Y-59057380D02*
X140483095Y-58057380D01*
X140245000Y-58057380D01*
X140102142Y-58105000D01*
X140006904Y-58200238D01*
X139959285Y-58295476D01*
X139911666Y-58485952D01*
X139911666Y-58628809D01*
X139959285Y-58819285D01*
X140006904Y-58914523D01*
X140102142Y-59009761D01*
X140245000Y-59057380D01*
X140483095Y-59057380D01*
X138959285Y-59057380D02*
X139530714Y-59057380D01*
X139245000Y-59057380D02*
X139245000Y-58057380D01*
X139340238Y-58200238D01*
X139435476Y-58295476D01*
X139530714Y-58343095D01*
%TO.C,D2*%
X146833095Y-59057380D02*
X146833095Y-58057380D01*
X146595000Y-58057380D01*
X146452142Y-58105000D01*
X146356904Y-58200238D01*
X146309285Y-58295476D01*
X146261666Y-58485952D01*
X146261666Y-58628809D01*
X146309285Y-58819285D01*
X146356904Y-58914523D01*
X146452142Y-59009761D01*
X146595000Y-59057380D01*
X146833095Y-59057380D01*
X145880714Y-58152619D02*
X145833095Y-58105000D01*
X145737857Y-58057380D01*
X145499761Y-58057380D01*
X145404523Y-58105000D01*
X145356904Y-58152619D01*
X145309285Y-58247857D01*
X145309285Y-58343095D01*
X145356904Y-58485952D01*
X145928333Y-59057380D01*
X145309285Y-59057380D01*
%TO.C,D3*%
X140483095Y-71757380D02*
X140483095Y-70757380D01*
X140245000Y-70757380D01*
X140102142Y-70805000D01*
X140006904Y-70900238D01*
X139959285Y-70995476D01*
X139911666Y-71185952D01*
X139911666Y-71328809D01*
X139959285Y-71519285D01*
X140006904Y-71614523D01*
X140102142Y-71709761D01*
X140245000Y-71757380D01*
X140483095Y-71757380D01*
X139578333Y-70757380D02*
X138959285Y-70757380D01*
X139292619Y-71138333D01*
X139149761Y-71138333D01*
X139054523Y-71185952D01*
X139006904Y-71233571D01*
X138959285Y-71328809D01*
X138959285Y-71566904D01*
X139006904Y-71662142D01*
X139054523Y-71709761D01*
X139149761Y-71757380D01*
X139435476Y-71757380D01*
X139530714Y-71709761D01*
X139578333Y-71662142D01*
%TO.C,D4*%
X146833095Y-71757380D02*
X146833095Y-70757380D01*
X146595000Y-70757380D01*
X146452142Y-70805000D01*
X146356904Y-70900238D01*
X146309285Y-70995476D01*
X146261666Y-71185952D01*
X146261666Y-71328809D01*
X146309285Y-71519285D01*
X146356904Y-71614523D01*
X146452142Y-71709761D01*
X146595000Y-71757380D01*
X146833095Y-71757380D01*
X145404523Y-71090714D02*
X145404523Y-71757380D01*
X145642619Y-70709761D02*
X145880714Y-71424047D01*
X145261666Y-71424047D01*
%TO.C,R1*%
X139911666Y-52707380D02*
X140245000Y-52231190D01*
X140483095Y-52707380D02*
X140483095Y-51707380D01*
X140102142Y-51707380D01*
X140006904Y-51755000D01*
X139959285Y-51802619D01*
X139911666Y-51897857D01*
X139911666Y-52040714D01*
X139959285Y-52135952D01*
X140006904Y-52183571D01*
X140102142Y-52231190D01*
X140483095Y-52231190D01*
X138959285Y-52707380D02*
X139530714Y-52707380D01*
X139245000Y-52707380D02*
X139245000Y-51707380D01*
X139340238Y-51850238D01*
X139435476Y-51945476D01*
X139530714Y-51993095D01*
%TO.C,R2*%
X146261666Y-52707380D02*
X146595000Y-52231190D01*
X146833095Y-52707380D02*
X146833095Y-51707380D01*
X146452142Y-51707380D01*
X146356904Y-51755000D01*
X146309285Y-51802619D01*
X146261666Y-51897857D01*
X146261666Y-52040714D01*
X146309285Y-52135952D01*
X146356904Y-52183571D01*
X146452142Y-52231190D01*
X146833095Y-52231190D01*
X145880714Y-51802619D02*
X145833095Y-51755000D01*
X145737857Y-51707380D01*
X145499761Y-51707380D01*
X145404523Y-51755000D01*
X145356904Y-51802619D01*
X145309285Y-51897857D01*
X145309285Y-51993095D01*
X145356904Y-52135952D01*
X145928333Y-52707380D01*
X145309285Y-52707380D01*
%TO.C,R3*%
X139911666Y-65407380D02*
X140245000Y-64931190D01*
X140483095Y-65407380D02*
X140483095Y-64407380D01*
X140102142Y-64407380D01*
X140006904Y-64455000D01*
X139959285Y-64502619D01*
X139911666Y-64597857D01*
X139911666Y-64740714D01*
X139959285Y-64835952D01*
X140006904Y-64883571D01*
X140102142Y-64931190D01*
X140483095Y-64931190D01*
X139578333Y-64407380D02*
X138959285Y-64407380D01*
X139292619Y-64788333D01*
X139149761Y-64788333D01*
X139054523Y-64835952D01*
X139006904Y-64883571D01*
X138959285Y-64978809D01*
X138959285Y-65216904D01*
X139006904Y-65312142D01*
X139054523Y-65359761D01*
X139149761Y-65407380D01*
X139435476Y-65407380D01*
X139530714Y-65359761D01*
X139578333Y-65312142D01*
%TO.C,R4*%
X146261666Y-65407380D02*
X146595000Y-64931190D01*
X146833095Y-65407380D02*
X146833095Y-64407380D01*
X146452142Y-64407380D01*
X146356904Y-64455000D01*
X146309285Y-64502619D01*
X146261666Y-64597857D01*
X146261666Y-64740714D01*
X146309285Y-64835952D01*
X146356904Y-64883571D01*
X146452142Y-64931190D01*
X146833095Y-64931190D01*
X145404523Y-64740714D02*
X145404523Y-65407380D01*
X145642619Y-64359761D02*
X145880714Y-65074047D01*
X145261666Y-65074047D01*
%TO.C,C3*%
X178646666Y-133612142D02*
X178694285Y-133659761D01*
X178837142Y-133707380D01*
X178932380Y-133707380D01*
X179075238Y-133659761D01*
X179170476Y-133564523D01*
X179218095Y-133469285D01*
X179265714Y-133278809D01*
X179265714Y-133135952D01*
X179218095Y-132945476D01*
X179170476Y-132850238D01*
X179075238Y-132755000D01*
X178932380Y-132707380D01*
X178837142Y-132707380D01*
X178694285Y-132755000D01*
X178646666Y-132802619D01*
X178313333Y-132707380D02*
X177694285Y-132707380D01*
X178027619Y-133088333D01*
X177884761Y-133088333D01*
X177789523Y-133135952D01*
X177741904Y-133183571D01*
X177694285Y-133278809D01*
X177694285Y-133516904D01*
X177741904Y-133612142D01*
X177789523Y-133659761D01*
X177884761Y-133707380D01*
X178170476Y-133707380D01*
X178265714Y-133659761D01*
X178313333Y-133612142D01*
%TO.C,C2*%
X127480000Y-54980000D02*
X127480000Y-56990000D01*
X125340000Y-55010000D02*
X125340000Y-57020000D01*
%TO.C,C1*%
X127480000Y-66410000D02*
X127480000Y-68420000D01*
X125340000Y-66440000D02*
X125340000Y-68450000D01*
D11*
%TO.C,D1*%
X142205000Y-61560000D02*
X138145000Y-61560000D01*
X142205000Y-59290000D02*
X142205000Y-61560000D01*
X138145000Y-59290000D02*
X142205000Y-59290000D01*
%TO.C,D2*%
X148555000Y-61560000D02*
X144495000Y-61560000D01*
X148555000Y-59290000D02*
X148555000Y-61560000D01*
X144495000Y-59290000D02*
X148555000Y-59290000D01*
%TO.C,D3*%
X142205000Y-74260000D02*
X138145000Y-74260000D01*
X142205000Y-71990000D02*
X142205000Y-74260000D01*
X138145000Y-71990000D02*
X142205000Y-71990000D01*
%TO.C,D4*%
X148555000Y-74260000D02*
X144495000Y-74260000D01*
X148555000Y-71990000D02*
X148555000Y-74260000D01*
X144495000Y-71990000D02*
X148555000Y-71990000D01*
%TO.C,R1*%
X140472064Y-53165000D02*
X139017936Y-53165000D01*
X140472064Y-54985000D02*
X139017936Y-54985000D01*
%TO.C,R2*%
X146822064Y-53165000D02*
X145367936Y-53165000D01*
X146822064Y-54985000D02*
X145367936Y-54985000D01*
%TO.C,R3*%
X140472064Y-67685000D02*
X139017936Y-67685000D01*
X140472064Y-65865000D02*
X139017936Y-65865000D01*
%TO.C,R4*%
X146822064Y-67685000D02*
X145367936Y-67685000D01*
X146822064Y-65865000D02*
X145367936Y-65865000D01*
D10*
%TO.C,C3*%
X177480000Y-134285000D02*
X179490000Y-134285000D01*
X177510000Y-136425000D02*
X179520000Y-136425000D01*
%TD*%
M02*
