%TF.GenerationSoftware,KiCad,Pcbnew,(6.0.4)*%
%TF.CreationDate,2023-07-24T12:38:11-04:00*%
%TF.ProjectId,BREAD_Slice,42524541-445f-4536-9c69-63652e6b6963,rev?*%
%TF.SameCoordinates,Original*%
%TF.FileFunction,Soldermask,Top*%
%TF.FilePolarity,Negative*%
%FSLAX46Y46*%
G04 Gerber Fmt 4.6, Leading zero omitted, Abs format (unit mm)*
G04 Created by KiCad (PCBNEW (6.0.4)) date 2023-07-24 12:38:11*
%MOMM*%
%LPD*%
G01*
G04 APERTURE LIST*
G04 Aperture macros list*
%AMRoundRect*
0 Rectangle with rounded corners*
0 $1 Rounding radius*
0 $2 $3 $4 $5 $6 $7 $8 $9 X,Y pos of 4 corners*
0 Add a 4 corners polygon primitive as box body*
4,1,4,$2,$3,$4,$5,$6,$7,$8,$9,$2,$3,0*
0 Add four circle primitives for the rounded corners*
1,1,$1+$1,$2,$3*
1,1,$1+$1,$4,$5*
1,1,$1+$1,$6,$7*
1,1,$1+$1,$8,$9*
0 Add four rect primitives between the rounded corners*
20,1,$1+$1,$2,$3,$4,$5,0*
20,1,$1+$1,$4,$5,$6,$7,0*
20,1,$1+$1,$6,$7,$8,$9,0*
20,1,$1+$1,$8,$9,$2,$3,0*%
G04 Aperture macros list end*
%ADD10C,5.700000*%
%ADD11RoundRect,0.050000X-0.800000X-0.800000X0.800000X-0.800000X0.800000X0.800000X-0.800000X0.800000X0*%
%ADD12O,1.700000X1.700000*%
%ADD13RoundRect,0.050000X-0.850000X-0.850000X0.850000X-0.850000X0.850000X0.850000X-0.850000X0.850000X0*%
%ADD14O,1.800000X1.800000*%
%ADD15RoundRect,0.050000X0.800000X0.800000X-0.800000X0.800000X-0.800000X-0.800000X0.800000X-0.800000X0*%
%ADD16RoundRect,0.050000X-1.050000X1.050000X-1.050000X-1.050000X1.050000X-1.050000X1.050000X1.050000X0*%
%ADD17C,2.200000*%
%ADD18RoundRect,0.050000X1.050000X-1.050000X1.050000X1.050000X-1.050000X1.050000X-1.050000X-1.050000X0*%
%ADD19RoundRect,0.050000X0.850000X0.850000X-0.850000X0.850000X-0.850000X-0.850000X0.850000X-0.850000X0*%
G04 APERTURE END LIST*
D10*
%TO.C,H1*%
X127600000Y-44800000D03*
%TD*%
%TO.C,H2*%
X187600000Y-44800000D03*
%TD*%
%TO.C,H3*%
X127600000Y-134800000D03*
%TD*%
%TO.C,H4*%
X187600000Y-134800000D03*
%TD*%
D11*
%TO.C,G1*%
X135000000Y-100000000D03*
D12*
X135000000Y-102540000D03*
X135000000Y-105080000D03*
X135000000Y-107620000D03*
X135000000Y-110160000D03*
X135000000Y-112700000D03*
X135000000Y-115240000D03*
X135000000Y-117780000D03*
X135000000Y-120320000D03*
X135000000Y-122860000D03*
X135000000Y-125400000D03*
X135000000Y-127940000D03*
X135000000Y-130480000D03*
X135000000Y-133020000D03*
X135000000Y-135560000D03*
X150240000Y-135560000D03*
X150240000Y-133020000D03*
X150240000Y-130480000D03*
X150240000Y-127940000D03*
X150240000Y-125400000D03*
X150240000Y-122860000D03*
X150240000Y-120320000D03*
X150240000Y-117780000D03*
X150240000Y-115240000D03*
X150240000Y-112700000D03*
X150240000Y-110160000D03*
X150240000Y-107620000D03*
X150240000Y-105080000D03*
X150240000Y-102540000D03*
X150240000Y-100000000D03*
%TD*%
D13*
%TO.C,J1*%
X129600000Y-78800000D03*
D14*
X129600000Y-81340000D03*
X129600000Y-83880000D03*
X129600000Y-86420000D03*
X129600000Y-88960000D03*
X129600000Y-91500000D03*
X129600000Y-94040000D03*
X129600000Y-96580000D03*
X129600000Y-99120000D03*
X129600000Y-101660000D03*
%TD*%
D15*
%TO.C,A1*%
X174670000Y-60425000D03*
D12*
X174670000Y-57885000D03*
X174670000Y-55345000D03*
X174670000Y-52805000D03*
X174670000Y-50265000D03*
X174670000Y-47725000D03*
X174670000Y-45185000D03*
X174670000Y-42645000D03*
X161970000Y-42645000D03*
X161970000Y-45185000D03*
X161970000Y-47725000D03*
X161970000Y-50265000D03*
X161970000Y-52805000D03*
X161970000Y-55345000D03*
X161970000Y-57885000D03*
X161970000Y-60425000D03*
%TD*%
D15*
%TO.C,A2*%
X174670000Y-83285000D03*
D12*
X174670000Y-80745000D03*
X174670000Y-78205000D03*
X174670000Y-75665000D03*
X174670000Y-73125000D03*
X174670000Y-70585000D03*
X174670000Y-68045000D03*
X174670000Y-65505000D03*
X161970000Y-65505000D03*
X161970000Y-68045000D03*
X161970000Y-70585000D03*
X161970000Y-73125000D03*
X161970000Y-75665000D03*
X161970000Y-78205000D03*
X161970000Y-80745000D03*
X161970000Y-83285000D03*
%TD*%
D15*
%TO.C,A3*%
X174670000Y-106145000D03*
D12*
X174670000Y-103605000D03*
X174670000Y-101065000D03*
X174670000Y-98525000D03*
X174670000Y-95985000D03*
X174670000Y-93445000D03*
X174670000Y-90905000D03*
X174670000Y-88365000D03*
X161970000Y-88365000D03*
X161970000Y-90905000D03*
X161970000Y-93445000D03*
X161970000Y-95985000D03*
X161970000Y-98525000D03*
X161970000Y-101065000D03*
X161970000Y-103605000D03*
X161970000Y-106145000D03*
%TD*%
D15*
%TO.C,A4*%
X174670000Y-129640000D03*
D12*
X174670000Y-127100000D03*
X174670000Y-124560000D03*
X174670000Y-122020000D03*
X174670000Y-119480000D03*
X174670000Y-116940000D03*
X174670000Y-114400000D03*
X174670000Y-111860000D03*
X161970000Y-111860000D03*
X161970000Y-114400000D03*
X161970000Y-116940000D03*
X161970000Y-119480000D03*
X161970000Y-122020000D03*
X161970000Y-124560000D03*
X161970000Y-127100000D03*
X161970000Y-129640000D03*
%TD*%
D16*
%TO.C,J2*%
X187370000Y-52170000D03*
D17*
X187370000Y-54710000D03*
X187370000Y-57250000D03*
X187370000Y-59790000D03*
%TD*%
D18*
%TO.C,J3*%
X187370000Y-83920000D03*
D17*
X187370000Y-81380000D03*
X187370000Y-78840000D03*
X187370000Y-76300000D03*
X187370000Y-73760000D03*
X187370000Y-71220000D03*
X187370000Y-68680000D03*
X187370000Y-66140000D03*
%TD*%
D16*
%TO.C,J4*%
X187370000Y-91540000D03*
D17*
X187370000Y-94080000D03*
X187370000Y-96620000D03*
X187370000Y-99160000D03*
X187370000Y-101700000D03*
X187370000Y-104240000D03*
X187370000Y-106780000D03*
X187370000Y-109320000D03*
%TD*%
D19*
%TO.C,J5*%
X187370000Y-118845000D03*
D14*
X187370000Y-116305000D03*
X187370000Y-113765000D03*
%TD*%
D18*
%TO.C,J6*%
X187370000Y-125830000D03*
D17*
X187370000Y-123290000D03*
%TD*%
M02*
